<?xml version="1.0" encoding="UTF-8" standalone="no" ?>
<!DOCTYPE svg PUBLIC "-//W3C//DTD SVG 1.1//EN" "http://www.w3.org/Graphics/SVG/1.1/DTD/svg11.dtd">
<svg xmlns="http://www.w3.org/2000/svg" xmlns:xlink="http://www.w3.org/1999/xlink" version="1.1" width="1080" height="1080" viewBox="0 0 1080 1080" xml:space="preserve">
<desc>Created with Fabric.js 4.2.0</desc>
<defs>
</defs>
<g transform="matrix(1 0 0 1 540 540)" id="cf0b7945-f510-498b-9229-4d5a54d70e32"  >
</g>
<g transform="matrix(1 0 0 1 540 540)" id="264e7a99-9e5e-4f17-b875-beec67321d30"  >
<rect style="stroke: none; stroke-width: 1; stroke-dasharray: none; stroke-linecap: butt; stroke-dashoffset: 0; stroke-linejoin: miter; stroke-miterlimit: 4; fill: rgb(19,18,18); fill-rule: nonzero; opacity: 1;" vector-effect="non-scaling-stroke"  x="-540" y="-540" rx="0" ry="0" width="1080" height="1080" />
</g>
<g transform="matrix(1 0 0 1 410.71 439.57)"  >
<path style="stroke: rgb(247,244,244); stroke-width: 7.6; stroke-dasharray: none; stroke-linecap: round; stroke-dashoffset: 0; stroke-linejoin: round; stroke-miterlimit: 10; fill: none; fill-rule: nonzero; opacity: 1;" vector-effect="non-scaling-stroke"  transform=" translate(-410.72, -439.57)" d="M 352.66340977198695 452.7742938110749 Q 352.671009771987 452.7666938110749 354.42996742671005 452.7666938110749 Q 356.1889250814332 452.7666938110749 357.0684039087947 451.8872149837133 Q 357.9478827361563 451.00773615635177 359.70684039087945 449.24877850162864 Q 361.4657980456026 447.4898208469055 364.10423452768725 444.8513843648208 Q 366.742671009772 442.2129478827361 368.5016286644951 439.57451140065143 Q 370.2605863192182 436.93607491856676 372.89902280130286 433.4181596091205 Q 375.5374592833876 429.9002442996742 377.2964169381107 426.38232899022796 Q 379.05537459283386 422.86441368078175 383.45276872964166 416.70806188925076 Q 387.85016286644947 410.5517100977198 393.12703583061887 401.7569218241042 Q 398.40390879478826 392.9621335504886 405.43973941368074 378.89047231270354 Q 412.4755700325733 364.81881107491853 415.11400651465794 356.02402280130286 Q 417.7524429967427 347.22923452768725 422.1498371335505 334.9165309446254 Q 426.5472312703583 322.6038273615635 427.4267100977198 318.20643322475564 Q 428.3061889250814 313.80903908794784 430.06514657980455 310.2911237785016 Q 431.8241042345277 306.77320846905536 431.8241042345277 305.89372964169377 Q 431.8241042345277 305.01425081433223 431.8241042345277 305.89372964169377 Q 431.8241042345277 306.77320846905536 430.9446254071661 311.17060260586317 Q 430.06514657980455 315.56799674267097 428.3061889250814 322.6038273615635 Q 426.5472312703583 329.639657980456 424.78827361563515 337.55496742671005 Q 423.029315960912 345.4702768729641 419.5114006514658 362.1803745928338 Q 415.99348534201954 378.89047231270354 410.71661237785014 402.63640065146575 Q 405.43973941368074 426.38232899022796 401.04234527687294 443.0924267100977 Q 396.64495114006513 459.8025244299674 389.6091205211726 480.0305374592833 Q 382.5732899022801 500.2585504885993 378.1758957654723 515.209690553746 Q 373.77850162866446 530.1608306188925 371.1400651465798 540.7145765472312 Q 368.5016286644951 551.26832247557 367.6221498371335 557.424674267101 Q 366.742671009772 563.5810260586319 366.742671009772 567.0989413680782 Q 366.742671009772 570.6168566775244 366.742671009772 571.496335504886 Q 366.742671009772 572.3758143322475 366.742671009772 573.2552931596091 Q 366.742671009772 574.1347719869707 367.6221498371335 573.2552931596091 Q 368.5016286644951 572.3758143322475 370.2605863192182 570.6168566775243 Q 372.0195439739413 568.8578990228012 374.65798045602605 566.2194625407166 Q 377.2964169381107 563.5810260586319 380.814332247557 560.0631107491856 Q 384.33224755700326 556.5451954397394 387.8501628664495 553.0272801302931 Q 391.36807817589573 549.5093648208468 397.52442996742667 545.9914495114006 Q 403.6807817589576 542.4735342019544 410.71661237785014 537.1966612377851 Q 417.7524429967427 531.9197882736156 426.5472312703583 526.6429153094462 Q 435.3420195439739 521.3660423452768 441.4983713355049 516.968648208469 Q 447.6547231270358 512.5712540716612 452.0521172638436 510.81229641693807 Q 456.44951140065143 509.05333876221493 460.8469055374593 507.29438110749186 Q 465.2442996742671 505.5354234527687 467.00325732899023 504.6559446254072 L 468.76981498371333 503.76886579804557" stroke-linecap="round" />
</g>
<g transform="matrix(1 0 0 1 462.61 485.2)"  >
<path style="stroke: rgb(247,244,244); stroke-width: 7.6; stroke-dasharray: none; stroke-linecap: round; stroke-dashoffset: 0; stroke-linejoin: round; stroke-miterlimit: 10; fill: none; fill-rule: nonzero; opacity: 1;" vector-effect="non-scaling-stroke"  transform=" translate(-462.61, -485.19)" d="M 465.2442996742671 403.5082794788273 Q 465.2442996742671 403.51587947882734 465.2442996742671 404.3953583061889 Q 465.2442996742671 405.2748371335505 465.2442996742671 408.79275244299674 Q 465.2442996742671 412.31066775244295 465.2442996742671 414.9491042345277 Q 465.2442996742671 417.58754071661235 465.2442996742671 431.65920195439736 Q 465.2442996742671 445.73086319218237 465.2442996742671 460.6820032573289 Q 465.2442996742671 475.6331433224755 465.2442996742671 492.3432410423452 Q 465.2442996742671 509.05333876221493 464.36482084690556 521.3660423452768 Q 463.48534201954396 533.6787459283387 461.72638436482083 539.8350977198697 Q 459.9674267100977 545.9914495114007 459.9674267100977 549.5093648208469 Q 459.9674267100977 553.0272801302931 459.9674267100977 554.7862377850163 Q 459.9674267100977 556.5451954397394 459.9674267100977 560.0631107491856 Q 459.9674267100977 563.5810260586319 459.9674267100977 564.4605048859935 Q 459.9674267100977 565.339983713355 459.9674267100977 566.2194625407166 Q 459.9674267100977 567.0989413680782 459.9674267100977 566.2194625407166 Q 459.9674267100977 565.339983713355 459.9674267100977 562.7015472312703 L 459.9674267100977 560.0555107491856" stroke-linecap="round" />
</g>
<g transform="matrix(1 0 0 1 0 0)"  >
<path style="stroke: rgb(247,244,244); stroke-width: 7.6; stroke-dasharray: none; stroke-linecap: round; stroke-dashoffset: 0; stroke-linejoin: round; stroke-miterlimit: 10; fill: none; fill-rule: nonzero; opacity: 1;" vector-effect="non-scaling-stroke"  transform=" translate(-528.57, -548.52)" d="M 510.9771986970684 421.0978560260586 Q 510.9771986970684 421.1054560260586 510.9771986970684 421.9849348534202 Q 510.9771986970684 422.86441368078175 510.9771986970684 424.6233713355049 Q 510.9771986970684 426.38232899022796 509.21824104234526 429.9002442996742 Q 507.4592833876221 433.4181596091205 505.700325732899 436.93607491856676 Q 503.94136807817586 440.453990228013 501.3029315960912 446.61034201954396 Q 498.66449511400646 452.7666938110749 496.9055374592833 457.1640879478827 Q 495.14657980456025 461.5614820846905 493.3876221498371 465.0793973941368 Q 491.628664495114 468.59731270358304 489.86970684039085 472.1152280130293 Q 488.1107491856677 475.6331433224755 486.3517915309446 479.1510586319218 Q 484.59283387622145 482.66897394136805 484.59283387622145 483.5484527687296 Q 484.59283387622145 484.4279315960912 483.71335504885985 485.3074104234528 Q 482.8338762214983 486.1868892508143 481.9543973941368 486.1868892508143 Q 481.07491856677524 486.1868892508143 481.07491856677524 487.06636807817586 Q 481.07491856677524 487.94584690553745 480.1954397394137 488.82532573289905 Q 479.3159609120521 489.7048045602606 479.3159609120521 490.5842833876221 Q 479.3159609120521 491.46376221498366 478.4364820846905 492.3432410423452 Q 477.557003257329 493.2227198697068 477.557003257329 494.1021986970684 Q 477.557003257329 494.9816775244299 476.67752442996743 494.9816775244299 Q 475.79804560260584 494.9816775244299 474.91856677524424 495.86115635179146 Q 474.0390879478827 496.74063517915306 474.0390879478827 495.86115635179146 Q 474.0390879478827 494.9816775244299 475.79804560260584 494.1021986970684 Q 477.557003257329 493.2227198697068 478.4364820846905 492.3432410423452 Q 479.3159609120521 491.46376221498366 480.1954397394137 491.46376221498366 Q 481.07491856677524 491.46376221498366 481.9543973941368 490.5842833876221 Q 482.8338762214983 489.7048045602606 482.8338762214983 488.82532573289905 Q 482.8338762214983 487.94584690553745 483.71335504885985 487.94584690553745 Q 484.59283387622145 487.94584690553745 484.59283387622145 487.06636807817586 Q 484.59283387622145 486.1868892508143 485.47231270358304 486.1868892508143 Q 486.3517915309446 486.1868892508143 487.2312703583061 486.1868892508143 Q 488.1107491856677 486.1868892508143 488.9902280130293 485.3074104234528 Q 489.86970684039085 484.4279315960912 491.628664495114 484.4279315960912 Q 493.3876221498371 484.4279315960912 495.14657980456025 484.4279315960912 Q 496.9055374592834 484.4279315960912 499.54397394136805 486.1868892508143 Q 502.1824104234527 487.94584690553745 505.700325732899 490.5842833876221 Q 509.21824104234526 493.2227198697068 511.85667752443 496.74063517915306 Q 514.4951140065147 500.2585504885993 517.1335504885993 504.65594462540713 Q 519.771986970684 509.05333876221493 525.9283387622149 521.3660423452768 Q 532.0846905537459 533.6787459283387 538.2410423452768 547.7504071661238 Q 544.3973941368077 561.8220684039088 549.6742671009772 575.8937296416939 Q 554.9511400651465 589.9653908794788 561.9869706840391 607.5549674267102 Q 569.0228013029316 625.1445439739414 571.6612377850163 634.8188110749186 Q 574.299674267101 644.4930781758957 576.9381107491856 653.2878664495113 Q 579.5765472312703 662.082654723127 580.4560260586319 664.7210912052117 Q 581.3355048859935 667.3595276872963 581.3355048859935 669.1184853420195 Q 581.3355048859935 670.8774429967426 582.214983713355 672.6364006514657 Q 583.0944625407166 674.3953583061889 583.0944625407166 675.2748371335504 Q 583.0944625407166 676.154315960912 583.0944625407166 675.2748371335504 L 583.0944625407166 674.3877583061889" stroke-linecap="round" />
</g>
</svg>