<svg xmlns="http://www.w3.org/2000/svg" xmlns:xlink="http://www.w3.org/1999/xlink" viewBox="0 0 700 348" width="700" height="348"><path d="M 200.500,155.000 C 208.908,145.910 209.000,146.000 217.500,137.000" stroke-width="4.883" stroke="black" fill="none" stroke-linecap="round"></path><path d="M 217.500,137.000 C 222.814,132.272 222.408,131.910 227.500,127.000" stroke-width="3.455" stroke="black" fill="none" stroke-linecap="round"></path><path d="M 227.500,127.000 C 230.732,123.152 230.814,123.272 233.500,119.000" stroke-width="3.460" stroke="black" fill="none" stroke-linecap="round"></path><path d="M 233.500,119.000 C 235.924,115.678 235.732,115.652 237.500,112.000" stroke-width="3.651" stroke="black" fill="none" stroke-linecap="round"></path><path d="M 237.500,112.000 C 238.739,108.551 238.924,108.678 239.500,105.000" stroke-width="4.272" stroke="black" fill="none" stroke-linecap="round"></path><path d="M 239.500,105.000 C 240.675,96.951 240.239,101.551 240.500,98.000" stroke-width="4.711" stroke="black" fill="none" stroke-linecap="round"></path><path d="M 240.500,98.000 C 239.381,104.483 240.175,99.951 238.500,111.000" stroke-width="5.030" stroke="black" fill="none" stroke-linecap="round"></path><path d="M 238.500,111.000 C 237.293,123.046 236.881,122.983 235.500,135.000" stroke-width="2.769" stroke="black" fill="none" stroke-linecap="round"></path><path d="M 235.500,135.000 C 233.719,142.957 234.293,143.046 232.500,151.000" stroke-width="2.782" stroke="black" fill="none" stroke-linecap="round"></path><path d="M 232.500,151.000 C 231.905,159.570 231.219,159.457 230.500,168.000" stroke-width="2.797" stroke="black" fill="none" stroke-linecap="round"></path><path d="M 230.500,168.000 C 228.808,174.462 229.405,174.570 227.500,181.000" stroke-width="3.036" stroke="black" fill="none" stroke-linecap="round"></path><path d="M 227.500,181.000 C 226.751,187.057 226.308,186.962 225.500,193.000" stroke-width="3.146" stroke="black" fill="none" stroke-linecap="round"></path><path d="M 225.500,193.000 C 221.716,200.446 224.751,196.557 223.500,200.000" stroke-width="4.058" stroke="black" fill="none" stroke-linecap="round"></path><path d="M 223.500,200.000 C 230.396,194.844 227.716,198.946 237.500,190.000" stroke-width="4.670" stroke="black" fill="none" stroke-linecap="round"></path><path d="M 237.500,190.000 C 241.266,187.063 241.396,187.344 245.500,185.000" stroke-width="3.816" stroke="black" fill="none" stroke-linecap="round"></path><path d="M 245.500,185.000 C 260.843,177.611 260.766,177.563 276.500,171.000" stroke-width="2.138" stroke="black" fill="none" stroke-linecap="round"></path><path d="M 273.500,131.000 C 274.416,133.966 274.000,134.000 274.500,137.000" stroke-width="5.327" stroke="black" fill="none" stroke-linecap="round"></path><path d="M 274.500,137.000 C 275.464,152.060 274.916,151.966 274.500,167.000" stroke-width="2.415" stroke="black" fill="none" stroke-linecap="round"></path><path d="M 274.500,167.000 C 272.500,183.000 273.464,183.060 270.500,199.000" stroke-width="2.002" stroke="black" fill="none" stroke-linecap="round"></path><path d="M 270.500,199.000 C 270.371,203.078 270.000,203.000 269.500,207.000" stroke-width="3.000" stroke="black" fill="none" stroke-linecap="round"></path><path d="M 269.500,207.000 C 267.349,216.434 268.371,212.078 266.500,217.000" stroke-width="3.272" stroke="black" fill="none" stroke-linecap="round"></path><path d="M 266.500,217.000 C 266.500,213.000 265.849,217.434 266.500,209.000" stroke-width="4.316" stroke="black" fill="none" stroke-linecap="round"></path><path d="M 297.500,141.000 C 295.677,144.613 295.500,144.500 293.500,148.000" stroke-width="5.250" stroke="black" fill="none" stroke-linecap="round"></path><path d="M 293.500,148.000 C 291.080,151.560 291.177,151.613 288.500,155.000" stroke-width="4.672" stroke="black" fill="none" stroke-linecap="round"></path><path d="M 288.500,155.000 C 286.500,157.500 286.580,157.560 284.500,160.000" stroke-width="4.194" stroke="black" fill="none" stroke-linecap="round"></path><path d="M 284.500,160.000 C 282.332,162.383 282.500,162.500 280.500,165.000" stroke-width="4.815" stroke="black" fill="none" stroke-linecap="round"></path><path d="M 280.500,165.000 C 279.000,167.500 278.832,167.383 277.500,170.000" stroke-width="5.228" stroke="black" fill="none" stroke-linecap="round"></path><path d="M 277.500,170.000 C 273.415,175.000 276.000,172.500 274.500,175.000" stroke-width="5.479" stroke="black" fill="none" stroke-linecap="round"></path><path d="M 274.500,175.000 C 279.299,169.160 276.415,175.000 283.500,170.000" stroke-width="5.502" stroke="black" fill="none" stroke-linecap="round"></path><path d="M 283.500,170.000 C 289.635,173.891 289.299,171.160 294.500,179.000" stroke-width="4.681" stroke="black" fill="none" stroke-linecap="round"></path><path d="M 294.500,179.000 C 299.347,184.770 299.635,184.391 303.500,191.000" stroke-width="3.352" stroke="black" fill="none" stroke-linecap="round"></path><path d="M 303.500,191.000 C 306.593,197.290 307.347,196.770 310.500,203.000" stroke-width="3.168" stroke="black" fill="none" stroke-linecap="round"></path></svg>